<?xml version="1.0" standalone="no"?><!DOCTYPE svg PUBLIC "-//W3C//DTD SVG 1.1//EN" "http://www.w3.org/Graphics/SVG/1.1/DTD/svg11.dtd"><svg t="1523518103154" class="icon" style="" viewBox="0 0 1024 1024" version="1.1" xmlns="http://www.w3.org/2000/svg" p-id="583" xmlns:xlink="http://www.w3.org/1999/xlink" width="40" height="40"><defs><style type="text/css"></style></defs><path d="M903.7 447.2H798.2V350c0-6.8-3.7-13-9.5-16.4-5.9-3.4-13.1-3.3-18.9 0.1l-148.2 87.7c-8.9 5.3-11.9 16.9-6.6 25.8 5.3 8.9 16.9 11.9 25.8 6.6l119.7-70.9V466c0 10.4 8.4 18.8 18.9 18.8h105.4V540H779.4c-10.4 0-18.9 8.4-18.9 18.8v82.9l-119.8-70.9c-8.9-5.3-20.6-2.3-25.8 6.6-5.3 9-2.3 20.5 6.6 25.8l148.3 87.7c2.9 1.7 6.3 2.6 9.6 2.6 3.2 0 6.4-0.8 9.3-2.5 5.9-3.3 9.5-9.6 9.5-16.4v-97.2h105.4c10.4 0 18.9-8.4 18.9-18.8V466c0-10.4-8.4-18.8-18.8-18.8z" fill="#a4a4a4" p-id="584"></path><path d="M728.7 730.3c-12.7-0.3-21.9 9.5-22 21.5l-0.6 51.6H595V198.8c0-10.5-7.6-19.6-18-21.4L427.2 151h286.4l-1.4 122c-0.1 12 9.5 21.9 21.5 22h0.3c11.9 0 21.6-9.6 21.8-21.5l1.7-144.1c0.1-5.8-2.2-11.4-6.3-15.5s-9.7-6.5-15.5-6.5H178.8c-1.1 0-2.1 0.5-3.2 0.7-1.3 0.2-2.5 0.3-3.7 0.7-1.8 0.6-3.4 1.6-5 2.6-0.7 0.5-1.5 0.6-2.2 1.2-0.2 0.2-0.3 0.5-0.5 0.7-1.7 1.5-2.9 3.4-4 5.4-0.4 0.6-0.9 1.1-1.2 1.8-1.2 2.7-1.9 5.6-1.9 8.7v0.2l8 696c0.1 10.4 7.6 19.3 17.9 21.2l386.4 69.6c1.3 0.2 2.6 0.3 3.9 0.3 5.1 0 10-1.8 14-5.1 4.9-4.1 7.8-10.2 7.8-16.7v-47.9h132.7c11.9 0 21.6-9.6 21.8-21.5l0.8-73.1c-0.1-11.9-9.7-21.8-21.7-21.9zM551.5 868.8L208.4 807l-7.5-651.8 350.6 61.9v651.7z" fill="#888888" p-id="585"></path></svg>